<svg xmlns="http://www.w3.org/2000/svg" xmlns:xlink="http://www.w3.org/1999/xlink" width="90" height="90" viewBox="0 0 90 90">
  <defs>
    <clipPath id="clip-logo">
      <rect width="90" height="90"/>
    </clipPath>
  </defs>
  <g id="logo" clip-path="url(#clip-logo)">
    <rect width="90" height="90" fill="rgba(255,255,255,0)"/>
    <g id="Logo-2" data-name="Logo" transform="translate(3 3)">
      <path id="Path_1" data-name="Path 1" d="M59.5,100.78a42,42,0,1,1,42-42A42.047,42.047,0,0,1,59.5,100.78Zm0-81.865A39.866,39.866,0,1,0,99.365,58.783,39.914,39.914,0,0,0,59.5,18.915Z" transform="translate(-17.5 -16.78)" fill="#007d3c"/>
      <path id="Path_2" data-name="Path 2" d="M67.281,225.983v9.889H64.115v-9.889h-3.7V223.43H71.027v2.553Z" transform="translate(-53.373 -189.541)" fill="#ed3024"/>
      <path id="Path_3" data-name="Path 3" d="M137.984,229.192a6.726,6.726,0,0,1-13.434,0c0-3.641,2.876-6.3,6.711-6.3S137.984,225.588,137.984,229.192Zm-10.21.018a3.616,3.616,0,0,0,3.516,3.711,3.558,3.558,0,0,0,3.444-3.711,3.515,3.515,0,0,0-3.444-3.675A3.572,3.572,0,0,0,127.774,229.21Z" transform="translate(-106.995 -189.09)" fill="#ed3024"/>
      <path id="Path_4" data-name="Path 4" d="M225.342,235.967l-5.717-7.652v7.652H216.66V223.54h2.788l5.74,7.67v-7.67h2.952v12.427Z" transform="translate(-183.999 -189.633)" fill="#ed3024"/>
      <path id="Path_5" data-name="Path 5" d="M301.76,235.967V223.54h3.155v12.427Z" transform="translate(-255.144 -189.633)" fill="#ed3024"/>
      <path id="Path_6" data-name="Path 6" d="M342.867,224.984l-1.828,2.166a4.256,4.256,0,0,0-3.116-1.615,3.637,3.637,0,0,0,0,7.265,4.619,4.619,0,0,0,3.116-1.456l1.847,1.953a7.5,7.5,0,0,1-5.131,2.273,6.345,6.345,0,1,1,.107-12.68A7.215,7.215,0,0,1,342.867,224.984Z" transform="translate(-279.772 -189.09)" fill="#ed3024"/>
      <path id="Path_7" data-name="Path 7" d="M418.324,229.192a6.726,6.726,0,0,1-13.434,0c0-3.641,2.876-6.3,6.711-6.3S418.324,225.588,418.324,229.192Zm-10.21.018a3.616,3.616,0,0,0,3.516,3.711,3.558,3.558,0,0,0,3.444-3.711,3.517,3.517,0,0,0-3.442-3.678A3.578,3.578,0,0,0,408.114,229.21Z" transform="translate(-341.361 -189.09)" fill="#ed3024"/>
      <path id="Path_8" data-name="Path 8" d="M98.54,323.776v2.878h5.576v2.486H98.54v4.58H95.38V321.29h9.215v2.486Z" transform="translate(-82.608 -271.353)" fill="#ed3024"/>
      <path id="Path_9" data-name="Path 9" d="M166.426,330.221H163.94v3.5h-3.16V321.29h5.558c3.28,0,5.166,1.563,5.166,4.333a4.141,4.141,0,0,1-2.255,3.995l2.611,4.1h-3.587Zm-.089-2.484a1.89,1.89,0,0,0,2.166-2.007c0-1.314-.8-1.953-2.166-1.953h-2.4v3.96Z" transform="translate(-137.283 -271.353)" fill="#ed3024"/>
      <path id="Path_10" data-name="Path 10" d="M242.34,323.776v2.468h5.93v2.486h-5.93v2.5H249.1v2.486H239.18V321.29h9.73v2.486Z" transform="translate(-202.826 -271.353)" fill="#ed3024"/>
      <path id="Path_11" data-name="Path 11" d="M317.038,321.8l-1.191,2.468a9.265,9.265,0,0,0-3.977-1.3c-.82,0-1.368.3-1.368.905,0,2.148,6.57.923,6.57,5.412,0,2.486-2.2,3.8-4.971,3.8a9.272,9.272,0,0,1-5.682-1.988l1.225-2.434a7.752,7.752,0,0,0,4.492,1.865c1,0,1.617-.372,1.617-1.084,0-2.2-6.57-.887-6.57-5.29,0-2.3,1.968-3.746,4.953-3.746A9.362,9.362,0,0,1,317.038,321.8Z" transform="translate(-259.039 -270.617)" fill="#ed3024"/>
      <path id="Path_12" data-name="Path 12" d="M390.2,333.719v-4.83H385.05v4.83h-3.16V321.29h3.16V326.4H390.2V321.29h3.16v12.429Z" transform="translate(-322.133 -271.353)" fill="#ed3024"/>
      <path id="Path_13" data-name="Path 13" d="M217.6,57.15l1.784,5.489h5.771l-4.669,3.393,1.783,5.489L217.6,68.129l-4.669,3.391,1.783-5.489-4.669-3.393h5.773Z" transform="translate(-175.595 -47.778)" fill="#007d3c"/>
      <path id="Path_14" data-name="Path 14" d="M314.515,98.64l1.256,3.869h4.067l-3.29,2.389,1.256,3.869-3.29-2.391-3.29,2.391,1.256-3.869-3.291-2.389h4.069Z" transform="translate(-258.485 -82.464)" fill="#007d3c"/>
      <path id="Path_15" data-name="Path 15" d="M143.423,98.64l1.258,3.869h4.067l-3.291,2.389,1.258,3.869-3.291-2.391-3.29,2.391,1.256-3.869-3.29-2.389h4.067Z" transform="translate(-115.453 -82.464)" fill="#007d3c"/>
    </g>
  </g>
</svg>
